<svg id="图层_1" data-name="图层 1" xmlns="http://www.w3.org/2000/svg" viewBox="0 0 444.1199 169.6423"><rect x="140.1749" y="90.2166" width="102.4851" height="70.4754" rx="8.8506" style="fill:#4cbaa3"/><rect y="126.5557" width="102.4851" height="34.1363" rx="8.8506" style="fill:#2fa3de"/><path d="M209.31,333.207a1.266,1.266,0,0,0-.4722,1.0288,1.1627,1.1627,0,0,0,.5776,1.0186,10.5422,10.5422,0,0,0,2.667.8926,7.5161,7.5161,0,0,1,3.2442,1.5434,3.8128,3.8128,0,0,1,1.1552,3.003,3.9638,3.9638,0,0,1-1.48,3.2026,5.9041,5.9041,0,0,1-3.8955,1.2285,9.0151,9.0151,0,0,1-6.2793-2.583l1.9531-2.394a6.9471,6.9471,0,0,0,4.3891,2.0791,2.3032,2.3032,0,0,0,1.4175-.3887,1.2468,1.2468,0,0,0,.5142-1.05,1.2235,1.2235,0,0,0-.5459-1.05,7.1194,7.1194,0,0,0-2.1631-.7876,9.412,9.412,0,0,1-3.7485-1.5855,3.7442,3.7442,0,0,1-1.1861-3.0664,3.7986,3.7986,0,0,1,1.5015-3.2231,6.0379,6.0379,0,0,1,3.7485-1.1343,9.023,9.023,0,0,1,2.94.5039,7.8972,7.8972,0,0,1,2.562,1.4282l-1.6592,2.3941a6.4652,6.4652,0,0,0-3.9482-1.4492A1.9764,1.9764,0,0,0,209.31,333.207Z" transform="translate(-44.7845 -213.6309)" style="fill:#fff"/><path d="M224.3774,342.3315a3.6116,3.6116,0,0,0,2.835-1.5752l1.8687,2.1a6.4973,6.4973,0,0,1-4.7247,2.2681,6.1254,6.1254,0,0,1-4.2949-1.6064,5.9072,5.9072,0,0,1,.021-8.4209,6.02,6.02,0,0,1,4.211-1.6275,6.564,6.564,0,0,1,2.4672.5039,6.2388,6.2388,0,0,1,2.1944,1.4908l-1.6377,2.142a3.9026,3.9026,0,0,0-2.898-1.3647,3.0688,3.0688,0,0,0-2.1318.8081,2.879,2.879,0,0,0-.8926,2.2471,2.8446,2.8446,0,0,0,.8926,2.2368A3.0348,3.0348,0,0,0,224.3774,342.3315Z" transform="translate(-44.7845 -213.6309)" style="fill:#fff"/><path d="M237.124,336.4307a2.3851,2.3851,0,0,0-2.1.9975,4.5337,4.5337,0,0,0-.6928,2.6353v4.893h-3.15V333.6587h3.15v1.4907a5.295,5.295,0,0,1,1.5224-1.1758,4.1429,4.1429,0,0,1,1.8584-.5039l.021,2.961Z" transform="translate(-44.7845 -213.6309)" style="fill:#fff"/><path d="M240.0747,332.22a1.877,1.877,0,1,1,1.3125.5352A1.7849,1.7849,0,0,1,240.0747,332.22Zm2.8877,12.7363h-3.15V333.6587h3.15Z" transform="translate(-44.7845 -213.6309)" style="fill:#fff"/><path d="M252.5171,333.47a4.7058,4.7058,0,0,1,3.5176,1.6485,5.8314,5.8314,0,0,1,1.5434,4.1474,5.9427,5.9427,0,0,1-1.5434,4.1787,4.7607,4.7607,0,0,1-3.6118,1.68,3.9767,3.9767,0,0,1-3.3287-1.6592v5.5655h-3.15V333.6587h3.15v1.26A4.6806,4.6806,0,0,1,252.5171,333.47Zm-3.4649,5.8482a3.2746,3.2746,0,0,0,.7666,2.247,2.3866,2.3866,0,0,0,1.8584.8716,2.5453,2.5453,0,0,0,1.9107-.8716,3.1315,3.1315,0,0,0,.8193-2.2363,3.378,3.378,0,0,0-.7983-2.289,2.4445,2.4445,0,0,0-1.9107-.9239,2.364,2.364,0,0,0-1.8794.9131A3.44,3.44,0,0,0,249.0522,339.3179Z" transform="translate(-44.7845 -213.6309)" style="fill:#fff"/><path d="M263.5,335.9268v5.06a1.4515,1.4515,0,0,0,.3359,1.0186,1.0453,1.0453,0,0,0,.7979.3676,1.8188,1.8188,0,0,0,1.4912-.7978l1.1758,2.2051a4.5479,4.5479,0,0,1-3.0972,1.3437,3.7608,3.7608,0,0,1-3.8745-3.99v-5.208h-1.3232v-2.2681h1.3232v-3.3814H263.5v3.3814h2.73v2.2681Z" transform="translate(-44.7845 -213.6309)" style="fill:#fff"/><path d="M51.5942,285.4648a2.86,2.86,0,0,1,.8819,2.3042,2.7291,2.7291,0,0,1-.9058,2.274,4.4088,4.4088,0,0,1-2.7661.72H47.688v2.34H45.8164v-8.3882H48.78A4.3081,4.3081,0,0,1,51.5942,285.4648Zm-1.374,3.3a1.6146,1.6146,0,0,0,.336-1.104,1.17,1.17,0,0,0-.438-1.0322,2.4064,2.4064,0,0,0-1.3619-.3057H47.688v2.82h1.26A1.6706,1.6706,0,0,0,50.22,288.7651Z" transform="translate(-44.7845 -213.6309)" style="fill:#595757"/><path d="M60.1323,289.875a3.1939,3.1939,0,0,1-.9721,2.3643,3.5859,3.5859,0,0,1-4.8838,0,3.368,3.368,0,0,1,0-4.7344,3.57,3.57,0,0,1,4.8838,0A3.2129,3.2129,0,0,1,60.1323,289.875Zm-5.0161,0a1.8494,1.8494,0,0,0,.45,1.29,1.5809,1.5809,0,0,0,2.3037,0,1.8494,1.8494,0,0,0,.45-1.29,1.8713,1.8713,0,0,0-.45-1.2959,1.5684,1.5684,0,0,0-2.3037,0A1.8713,1.8713,0,0,0,55.1162,289.875Z" transform="translate(-44.7845 -213.6309)" style="fill:#595757"/><path d="M63.2637,293.103h-1.8v-8.9038h1.8Z" transform="translate(-44.7845 -213.6309)" style="fill:#595757"/><path d="M66.0835,295.647a2.6154,2.6154,0,0,1-1.7876-.7681l.8159-1.332a1.3475,1.3475,0,0,0,.9361.4443.5252.5252,0,0,0,.4316-.2461.87.87,0,0,0,.18-.522q0-.276-2.4961-6.5761h1.92l1.5723,4.02,1.5717-4.02h1.92l-3,7.6079a2.1448,2.1448,0,0,1-.8222,1.0263A2.2189,2.2189,0,0,1,66.0835,295.647Z" transform="translate(-44.7845 -213.6309)" style="fill:#595757"/><path d="M73.7876,293.103l-2.5557-6.4677H73.104l1.6079,4.0678,1.6079-4.0678h1.8721l-2.5562,6.4677Z" transform="translate(-44.7845 -213.6309)" style="fill:#595757"/><path d="M85.3921,289.875a3.1936,3.1936,0,0,1-.9722,2.3643,3.5859,3.5859,0,0,1-4.8838,0,3.3683,3.3683,0,0,1,0-4.7344,3.57,3.57,0,0,1,4.8838,0A3.2126,3.2126,0,0,1,85.3921,289.875Zm-5.0161,0a1.8494,1.8494,0,0,0,.45,1.29,1.5809,1.5809,0,0,0,2.3037,0,1.8494,1.8494,0,0,0,.45-1.29,1.8713,1.8713,0,0,0-.45-1.2959,1.5684,1.5684,0,0,0-2.3037,0A1.8713,1.8713,0,0,0,80.376,289.875Z" transform="translate(-44.7845 -213.6309)" style="fill:#595757"/><path d="M90.12,288.231a1.3638,1.3638,0,0,0-1.2.57,2.5924,2.5924,0,0,0-.396,1.5058v2.7959h-1.8v-6.456h1.8v.852a3.0218,3.0218,0,0,1,.87-.6719,2.3622,2.3622,0,0,1,1.062-.288l.0122,1.6919Z" transform="translate(-44.7845 -213.6309)" style="fill:#595757"/><path d="M97.2476,292.167a3.61,3.61,0,0,1-2.5621,1.0322,3.3983,3.3983,0,0,1-2.43-.9062,3.1823,3.1823,0,0,1-.96-2.43,3.1328,3.1328,0,0,1,.978-2.4238,3.2973,3.2973,0,0,1,2.31-.9,3.3391,3.3391,0,0,1,2.2622.8042,2.7647,2.7647,0,0,1,.93,2.208v.96H93.0718a1.2805,1.2805,0,0,0,.5517.8638,1.7662,1.7662,0,0,0,1.0562.3359,2.0723,2.0723,0,0,0,1.56-.6357ZM95.52,288.3389a1.3621,1.3621,0,0,0-.9057-.312,1.6237,1.6237,0,0,0-.9781.3242,1.24,1.24,0,0,0-.5161.876h2.8321A1.28,1.28,0,0,0,95.52,288.3389Z" transform="translate(-44.7845 -213.6309)" style="fill:#595757"/><path d="M108.8276,285.813a3.9323,3.9323,0,0,1,1.2,3.0542,4.1234,4.1234,0,0,1-1.17,3.0957,4.9381,4.9381,0,0,1-3.57,1.14H102.42v-8.3882h2.9639A4.926,4.926,0,0,1,108.8276,285.813Zm-1.374,4.9858a2.4591,2.4591,0,0,0,.69-1.8838,2.5208,2.5208,0,0,0-.69-1.9018,2.9474,2.9474,0,0,0-2.1177-.666h-1.0444v5.1h1.188A2.7753,2.7753,0,0,0,107.4536,290.7988Z" transform="translate(-44.7845 -213.6309)" style="fill:#595757"/><path d="M116.8677,293.103h-1.6919v-.78a2.1211,2.1211,0,0,1-1.7222.876,2.56,2.56,0,0,1-1.7217-.5942,1.9768,1.9768,0,0,1-.6963-1.584,1.6746,1.6746,0,0,1,.72-1.4819,3.4412,3.4412,0,0,1,1.9677-.4922h1.3443v-.0357q0-1.032-1.0923-1.0322a2.9492,2.9492,0,0,0-.99.186,3.2162,3.2162,0,0,0-.8823.462l-.8037-1.1641a4.8161,4.8161,0,0,1,2.9038-.9238,3.0052,3.0052,0,0,1,1.92.5879,2.2265,2.2265,0,0,1,.7442,1.86Zm-1.812-2.46v-.312h-1.128q-1.08,0-1.08.6718a.6173.6173,0,0,0,.2583.5342,1.2472,1.2472,0,0,0,.7378.186,1.3139,1.3139,0,0,0,.8461-.2939A.9578.9578,0,0,0,115.0557,290.6431Z" transform="translate(-44.7845 -213.6309)" style="fill:#595757"/><path d="M120.5879,287.9429v2.8921a.83.83,0,0,0,.1919.582.5979.5979,0,0,0,.456.21,1.0393,1.0393,0,0,0,.8521-.4561l.6719,1.26a2.6,2.6,0,0,1-1.77.768,2.15,2.15,0,0,1-2.2138-2.28v-2.976H118.02V286.647h.7559v-1.9322h1.812v1.9322h1.56v1.2959Z" transform="translate(-44.7845 -213.6309)" style="fill:#595757"/><path d="M129.2036,293.103h-1.6919v-.78a2.1209,2.1209,0,0,1-1.7221.876,2.5594,2.5594,0,0,1-1.7217-.5942,1.9765,1.9765,0,0,1-.6963-1.584,1.6745,1.6745,0,0,1,.72-1.4819,3.4415,3.4415,0,0,1,1.9678-.4922h1.3442v-.0357q0-1.032-1.0923-1.0322a2.9483,2.9483,0,0,0-.99.186,3.2133,3.2133,0,0,0-.8823.462l-.8038-1.1641a4.8163,4.8163,0,0,1,2.9039-.9238,3.0054,3.0054,0,0,1,1.92.5879,2.2265,2.2265,0,0,1,.7441,1.86Zm-1.812-2.46v-.312h-1.1279q-1.08,0-1.08.6718a.6173.6173,0,0,0,.2583.5342,1.2476,1.2476,0,0,0,.7378.186,1.3144,1.3144,0,0,0,.8462-.2939A.958.958,0,0,0,127.3916,290.6431Z" transform="translate(-44.7845 -213.6309)" style="fill:#595757"/><path d="M135.7075,291.0933a1.8787,1.8787,0,0,1-.7021,1.53,2.7167,2.7167,0,0,1-1.7818.5762,4.7749,4.7749,0,0,1-1.5-.2583,4.42,4.42,0,0,1-1.4038-.7617l.792-1.1279a3.4485,3.4485,0,0,0,2.148.78.9693.9693,0,0,0,.5517-.1382.422.422,0,0,0,.2041-.3658.5286.5286,0,0,0-.2822-.42,3.1963,3.1963,0,0,0-.8159-.36q-.534-.1677-.8159-.2881a4.5661,4.5661,0,0,1-.6421-.3477,1.49,1.49,0,0,1-.732-1.35,1.77,1.77,0,0,1,.72-1.458,2.9269,2.9269,0,0,1,1.86-.5639,4.0554,4.0554,0,0,1,2.28.768l-.6719,1.2a2.9481,2.9481,0,0,0-1.6738-.5756q-.8343,0-.834.456a.4391.4391,0,0,0,.2637.396,5.3815,5.3815,0,0,0,.876.3359q.6123.192.87.294a4.3691,4.3691,0,0,1,.6181.3179A1.4674,1.4674,0,0,1,135.7075,291.0933Z" transform="translate(-44.7845 -213.6309)" style="fill:#595757"/><path d="M142.68,292.167a3.611,3.611,0,0,1-2.5625,1.0322,3.3992,3.3992,0,0,1-2.43-.9062,3.1827,3.1827,0,0,1-.96-2.43,3.1325,3.1325,0,0,1,.9781-2.4238,3.2981,3.2981,0,0,1,2.31-.9,3.3387,3.3387,0,0,1,2.2617.8042,2.7641,2.7641,0,0,1,.93,2.208v.96h-4.7036a1.281,1.281,0,0,0,.5518.8638,1.7669,1.7669,0,0,0,1.0561.3359,2.07,2.07,0,0,0,1.56-.6357Zm-1.7285-3.8281a1.3628,1.3628,0,0,0-.9063-.312,1.6232,1.6232,0,0,0-.9775.3242,1.2392,1.2392,0,0,0-.5161.876h2.8325A1.2841,1.2841,0,0,0,140.9512,288.3389Z" transform="translate(-44.7845 -213.6309)" style="fill:#595757"/><path d="M146.5791,287.9429v2.8921a.8259.8259,0,0,0,.1924.582.5964.5964,0,0,0,.456.21,1.0391,1.0391,0,0,0,.8516-.4561l.6719,1.26a2.6,2.6,0,0,1-1.77.768,2.1491,2.1491,0,0,1-2.2138-2.28v-2.976h-.7569V286.647h.7569v-1.9322h1.8115v1.9322h1.56v1.2959Z" transform="translate(-44.7845 -213.6309)" style="fill:#595757"/><path d="M66.15,360.4155a4.6,4.6,0,0,1-6.2881,0,4.4037,4.4037,0,0,1,0-6.1919,4.6013,4.6013,0,0,1,6.2881,0,4.4037,4.4037,0,0,1,0,6.1919Zm-1.0381-5.25a2.9419,2.9419,0,0,0-4.2119,0,3.1332,3.1332,0,0,0,0,4.3081,2.9407,2.9407,0,0,0,4.2119,0,3.1332,3.1332,0,0,0,0-4.3081Z" transform="translate(-44.7845 -213.6309)" style="fill:#fff"/><path d="M73.4824,358.6455V355.19h1.3438v6.3838H73.4824V360.41a2.5059,2.5059,0,0,1-3.87.6,2.57,2.57,0,0,1-.666-1.9082V355.19h1.3442v3.5039q0,1.7637,1.4639,1.7637a1.7574,1.7574,0,0,0,1.2119-.4619A1.7181,1.7181,0,0,0,73.4824,358.6455Z" transform="translate(-44.7845 -213.6309)" style="fill:#fff"/><path d="M78.4263,356.27v3.24a1.0518,1.0518,0,0,0,.24.726.8525.8525,0,0,0,.6719.27,1.1454,1.1454,0,0,0,.8281-.42l.5518.9478a2.2907,2.2907,0,0,1-1.566.6362,2.0142,2.0142,0,0,1-1.4638-.5942,2.14,2.14,0,0,1-.606-1.6021V356.27h-.8042v-1.08h.8042v-2.0044h1.3438V355.19h1.68v1.08Z" transform="translate(-44.7845 -213.6309)" style="fill:#fff"/><path d="M83.4419,354.6616v.5283h1.68v1.08h-1.68v5.3042H82.0981V356.27h-.8042v-1.08h.8042v-.4921a2.14,2.14,0,0,1,.606-1.6021,2.0138,2.0138,0,0,1,1.4639-.5937,2.2924,2.2924,0,0,1,1.5659.6357l-.5518.9482a1.1443,1.1443,0,0,0-.8281-.42.8528.8528,0,0,0-.6719.27A1.0536,1.0536,0,0,0,83.4419,354.6616Z" transform="translate(-44.7845 -213.6309)" style="fill:#fff"/><path d="M86.502,353.918a.84.84,0,1,1,.6.2519A.8205.8205,0,0,1,86.502,353.918Zm1.26,7.6557H86.418V355.19h1.3437Z" transform="translate(-44.7845 -213.6309)" style="fill:#fff"/><path d="M91.3618,356.27v3.24a1.0519,1.0519,0,0,0,.24.726.8522.8522,0,0,0,.6718.27,1.1455,1.1455,0,0,0,.8282-.42l.5517.9478a2.29,2.29,0,0,1-1.5659.6362,2.0143,2.0143,0,0,1-1.4639-.5942,2.14,2.14,0,0,1-.6059-1.6021V356.27h-.8042v-1.08h.8042v-2.0044h1.3437V355.19h1.68v1.08Z" transform="translate(-44.7845 -213.6309)" style="fill:#fff"/><path d="M99.27,359.6655a1.7955,1.7955,0,0,1-.66,1.458,2.5646,2.5646,0,0,1-1.6919.5464,4.532,4.532,0,0,1-1.4458-.2519,4.3609,4.3609,0,0,1-1.3262-.708l.6479-1.0445a3.622,3.622,0,0,0,2.16.84,1.1247,1.1247,0,0,0,.72-.21.6538.6538,0,0,0,.2642-.5342q0-.48-1.272-.8638a1.484,1.484,0,0,0-.144-.0483q-1.9923-.54-1.9922-1.8a1.7073,1.7073,0,0,1,.69-1.4219,2.8484,2.8484,0,0,1,1.794-.5341,3.7323,3.7323,0,0,1,2.0879.6479l-.504.9961a3.0109,3.0109,0,0,0-1.6923-.5161,1.5448,1.5448,0,0,0-.78.1738.5664.5664,0,0,0-.3.5225.4752.4752,0,0,0,.312.4555,2.9849,2.9849,0,0,0,.6059.2041q.39.0967.69.1919.3.0968.582.2163a3.7823,3.7823,0,0,1,.606.336A1.5,1.5,0,0,1,99.27,359.6655Z" transform="translate(-44.7845 -213.6309)" style="fill:#fff"/><path d="M110.6221,354.2837a3.9127,3.9127,0,0,1,1.2119,3.0542,4.1106,4.1106,0,0,1-1.1763,3.0957,4.9967,4.9967,0,0,1-3.6,1.14h-2.7842v-8.3882h2.88A4.9924,4.9924,0,0,1,110.6221,354.2837Zm-.2163,3.09q0-2.88-3.3-2.88H105.69v5.748h1.5718a3.3828,3.3828,0,0,0,2.334-.7261A2.7279,2.7279,0,0,0,110.4058,357.3735Z" transform="translate(-44.7845 -213.6309)" style="fill:#fff"/><path d="M118.6377,361.5737h-1.2241v-.852a2.6249,2.6249,0,0,1-2.124.9482,2.437,2.437,0,0,1-1.65-.5639,1.8889,1.8889,0,0,1-.6538-1.5064,1.5849,1.5849,0,0,1,.6958-1.41,3.3323,3.3323,0,0,1,1.8838-.4682h1.74v-.24q0-1.2722-1.4161-1.2719a3.3192,3.3192,0,0,0-1.8481.6479l-.6-.84a4.1327,4.1327,0,0,1,2.64-.9238,2.863,2.863,0,0,1,1.8423.57,2.1593,2.1593,0,0,1,.7139,1.7939Zm-1.3442-2.3759v-.54h-1.5118q-1.4523,0-1.4521.9121a.8113.8113,0,0,0,.36.7139,1.7594,1.7594,0,0,0,1.0024.2461,1.8184,1.8184,0,0,0,1.1216-.36A1.1526,1.1526,0,0,0,117.2935,359.1978Z" transform="translate(-44.7845 -213.6309)" style="fill:#fff"/><path d="M122.0933,356.27v3.24a1.0518,1.0518,0,0,0,.24.726.8525.8525,0,0,0,.6719.27,1.1454,1.1454,0,0,0,.8281-.42l.5518.9478a2.2907,2.2907,0,0,1-1.566.6362,2.0142,2.0142,0,0,1-1.4638-.5942,2.14,2.14,0,0,1-.606-1.6021V356.27h-.8042v-1.08h.8042v-2.0044h1.3438V355.19h1.68v1.08Z" transform="translate(-44.7845 -213.6309)" style="fill:#fff"/><path d="M130.6255,361.5737h-1.2241v-.852a2.625,2.625,0,0,1-2.1241.9482,2.4369,2.4369,0,0,1-1.65-.5639,1.8889,1.8889,0,0,1-.6538-1.5064,1.5849,1.5849,0,0,1,.6958-1.41,3.3323,3.3323,0,0,1,1.8838-.4682h1.74v-.24q0-1.2722-1.4161-1.2719a3.3192,3.3192,0,0,0-1.8481.6479l-.6-.84a4.1325,4.1325,0,0,1,2.64-.9238,2.8632,2.8632,0,0,1,1.8423.57,2.1593,2.1593,0,0,1,.7139,1.7939Zm-1.3443-2.3759v-.54H127.77q-1.4523,0-1.4521.9121a.8115.8115,0,0,0,.36.7139,1.76,1.76,0,0,0,1.0025.2461,1.8186,1.8186,0,0,0,1.1216-.36A1.1525,1.1525,0,0,0,129.2812,359.1978Z" transform="translate(-44.7845 -213.6309)" style="fill:#fff"/><path d="M220.0679,216.9307a2.4705,2.4705,0,0,1-1.5957,2.604l2.1235,3H218.292l-1.86-2.6758h-1.2964v2.6758h-1.8715v-8.3882h3.18a4.5606,4.5606,0,0,1,2.79.66A2.5458,2.5458,0,0,1,220.0679,216.9307Zm-2.2559.9961a1.2681,1.2681,0,0,0,.3482-.99,1.06,1.06,0,0,0-.36-.93,2.3036,2.3036,0,0,0-1.26-.2519h-1.4043v2.4839h1.3682A2.0136,2.0136,0,0,0,217.812,217.9268Z" transform="translate(-44.7845 -213.6309)" style="fill:#595757"/><path d="M227.3994,221.5986a3.61,3.61,0,0,1-2.562,1.0323,3.3986,3.3986,0,0,1-2.43-.9063,3.1826,3.1826,0,0,1-.96-2.43,3.1324,3.1324,0,0,1,.978-2.4238,3.2971,3.2971,0,0,1,2.31-.9,3.34,3.34,0,0,1,2.2622.8042,2.7648,2.7648,0,0,1,.93,2.208v.96h-4.7041a1.281,1.281,0,0,0,.5518.8637,1.7655,1.7655,0,0,0,1.0561.336,2.0721,2.0721,0,0,0,1.56-.6358Zm-1.728-3.8281a1.3624,1.3624,0,0,0-.9058-.312,1.6236,1.6236,0,0,0-.978.3242,1.2392,1.2392,0,0,0-.5161.876h2.832A1.28,1.28,0,0,0,225.6714,217.7705Z" transform="translate(-44.7845 -213.6309)" style="fill:#595757"/><path d="M232.32,221.0347a2.0633,2.0633,0,0,0,1.62-.9l1.0683,1.2a3.7144,3.7144,0,0,1-2.7,1.2964,3.5,3.5,0,0,1-2.4541-.918,3.3755,3.3755,0,0,1,.0122-4.812,3.4385,3.4385,0,0,1,2.4058-.93,3.7526,3.7526,0,0,1,1.41.2881,3.5665,3.5665,0,0,1,1.2539.852L234,218.3345a2.23,2.23,0,0,0-1.6557-.78,1.754,1.754,0,0,0-1.2183.4619,1.6454,1.6454,0,0,0-.51,1.2842,1.6252,1.6252,0,0,0,.51,1.2778A1.7341,1.7341,0,0,0,232.32,221.0347Z" transform="translate(-44.7845 -213.6309)" style="fill:#595757"/><path d="M242.5557,219.3066a3.1937,3.1937,0,0,1-.9722,2.3643,3.5857,3.5857,0,0,1-4.8838,0,3.368,3.368,0,0,1,0-4.7344,3.57,3.57,0,0,1,4.8838,0A3.2131,3.2131,0,0,1,242.5557,219.3066Zm-5.0161,0a1.85,1.85,0,0,0,.45,1.29,1.5812,1.5812,0,0,0,2.3038,0,1.85,1.85,0,0,0,.45-1.29,1.8715,1.8715,0,0,0-.45-1.2959,1.5686,1.5686,0,0,0-2.3038,0A1.8719,1.8719,0,0,0,237.54,219.3066Z" transform="translate(-44.7845 -213.6309)" style="fill:#595757"/><path d="M247.2837,217.6626a1.3638,1.3638,0,0,0-1.2.57,2.5917,2.5917,0,0,0-.396,1.5059v2.7959h-1.8v-6.4561h1.8v.8521a3.02,3.02,0,0,1,.87-.6719,2.3617,2.3617,0,0,1,1.062-.2881l.0122,1.6919Z" transform="translate(-44.7845 -213.6309)" style="fill:#595757"/><path d="M251.3218,222.6309a2.7272,2.7272,0,0,1-2.0459-.9722,3.4154,3.4154,0,0,1-.9-2.4121,3.2754,3.2754,0,0,1,.876-2.3579,2.7484,2.7484,0,0,1,2.0517-.918,2.462,2.462,0,0,1,1.92.8281v-3.1679h1.8v8.9038h-1.8v-.8521A2.3353,2.3353,0,0,1,251.3218,222.6309Zm-1.1338-3.3121a1.7909,1.7909,0,0,0,.4678,1.2779,1.4541,1.4541,0,0,0,1.0918.498,1.3642,1.3642,0,0,0,1.062-.498,1.8727,1.8727,0,0,0,.438-1.2842,1.9638,1.9638,0,0,0-.438-1.3076,1.35,1.35,0,0,0-1.0738-.522,1.3969,1.3969,0,0,0-1.0922.5278A1.9318,1.9318,0,0,0,250.188,219.3188Z" transform="translate(-44.7845 -213.6309)" style="fill:#595757"/><rect y="90.2166" width="102.4851" height="34.1363" rx="8.8506" style="fill:#2fa3de"/><path d="M61.4575,315.6528h1.416v8.3882h-1.416Z" transform="translate(-44.7845 -213.6309)" style="fill:#fff"/><path d="M66.3535,320.585v3.456H65.01v-6.3838h1.3437v1.1636a2.131,2.131,0,0,1,.87-.9238,2.4674,2.4674,0,0,1,1.2539-.336,2.03,2.03,0,0,1,2.0523,1.2481,2.865,2.865,0,0,1,2.3638-1.2481,2.3723,2.3723,0,0,1,1.746.66,2.5691,2.5691,0,0,1,.6661,1.9077v3.9121H73.9614v-3.5039q0-1.7645-1.4638-1.7642a1.7748,1.7748,0,0,0-1.1939.438,1.6589,1.6589,0,0,0-.5342,1.2784v3.5517H69.4258v-3.5039a2.2182,2.2182,0,0,0-.3242-1.3379,1.1991,1.1991,0,0,0-1.02-.4263,1.76,1.76,0,0,0-1.2119.462A1.7182,1.7182,0,0,0,66.3535,320.585Z" transform="translate(-44.7845 -213.6309)" style="fill:#fff"/><path d="M82.3491,324.041H81.125v-.852a2.6246,2.6246,0,0,1-2.124.9482,2.4361,2.4361,0,0,1-1.65-.564,1.8882,1.8882,0,0,1-.6538-1.5063,1.5846,1.5846,0,0,1,.6958-1.41,3.3321,3.3321,0,0,1,1.8838-.4682h1.74v-.24q0-1.2722-1.416-1.272a3.32,3.32,0,0,0-1.8482.648l-.6-.84a4.1323,4.1323,0,0,1,2.64-.9239,2.8634,2.8634,0,0,1,1.8423.57,2.16,2.16,0,0,1,.7138,1.7939Zm-1.3442-2.376v-.54H79.4932q-1.4524,0-1.4522.9121a.8113.8113,0,0,0,.36.7139,1.76,1.76,0,0,0,1.0024.2461,1.8182,1.8182,0,0,0,1.1216-.36A1.1528,1.1528,0,0,0,81.0049,321.665Z" transform="translate(-44.7845 -213.6309)" style="fill:#fff"/><path d="M90.125,317.6572v5.5679a3.2861,3.2861,0,0,1-.918,2.5381,3.3426,3.3426,0,0,1-2.3579.8457,4.1511,4.1511,0,0,1-2.604-.9l.6358-1.02a3.1174,3.1174,0,0,0,1.89.708,2.205,2.205,0,0,0,1.5122-.4922,1.9953,1.9953,0,0,0,.5576-1.5718v-.8159a2.2839,2.2839,0,0,1-.8579.9,2.3826,2.3826,0,0,1-1.2539.3359,2.7094,2.7094,0,0,1-2.0879-.8877,3.3956,3.3956,0,0,1,0-4.416,2.7013,2.7013,0,0,1,2.082-.8882,2.4687,2.4687,0,0,1,2.0581,1.044v-.9478Zm-4.98,2.9458a2.0228,2.0228,0,0,0,.4859,1.356,1.6316,1.6316,0,0,0,1.3081.57,1.7293,1.7293,0,0,0,1.332-.5517,1.9486,1.9486,0,0,0,.51-1.3741,2.0015,2.0015,0,0,0-.5161-1.3921,1.7153,1.7153,0,0,0-1.332-.57,1.6024,1.6024,0,0,0-1.3022.5879A2.0927,2.0927,0,0,0,85.145,320.603Z" transform="translate(-44.7845 -213.6309)" style="fill:#fff"/><path d="M98.0093,321.437H93.0054a1.4538,1.4538,0,0,0,.6357,1.1221,2.473,2.473,0,0,0,3.168-.33l.768.84a3.5685,3.5685,0,0,1-2.6879,1.0684,3.2009,3.2009,0,0,1-2.2862-.894,3.1534,3.1534,0,0,1-.9419-2.4,3.102,3.102,0,0,1,.96-2.3936,3.221,3.221,0,0,1,2.2622-.8882,3.2756,3.2756,0,0,1,2.2139.7862,2.7088,2.7088,0,0,1,.9121,2.166Zm-5.0039-1.0561h3.66a1.539,1.539,0,0,0-.5039-1.2359,1.8417,1.8417,0,0,0-1.2422-.4321,2.1232,2.1232,0,0,0-1.3256.45A1.4523,1.4523,0,0,0,93.0054,320.3809Z" transform="translate(-44.7845 -213.6309)" style="fill:#fff"/><path d="M109.313,316.751a3.9127,3.9127,0,0,1,1.2119,3.0542,4.1106,4.1106,0,0,1-1.1763,3.0957,4.9966,4.9966,0,0,1-3.6,1.14h-2.7842v-8.3882h2.88A4.9919,4.9919,0,0,1,109.313,316.751Zm-.2163,3.09q0-2.88-3.3-2.88h-1.416v5.7481h1.5717a3.3827,3.3827,0,0,0,2.334-.7261A2.7275,2.7275,0,0,0,109.0967,319.8408Z" transform="translate(-44.7845 -213.6309)" style="fill:#fff"/><path d="M117.3291,324.041H116.105v-.852a2.6249,2.6249,0,0,1-2.124.9482,2.4361,2.4361,0,0,1-1.65-.564,1.8883,1.8883,0,0,1-.6539-1.5063,1.5848,1.5848,0,0,1,.6958-1.41,3.3323,3.3323,0,0,1,1.8838-.4682h1.74v-.24q0-1.2722-1.416-1.272a3.3194,3.3194,0,0,0-1.8482.648l-.6-.84a4.1322,4.1322,0,0,1,2.64-.9239,2.8631,2.8631,0,0,1,1.8423.57,2.1593,2.1593,0,0,1,.7139,1.7939Zm-1.3442-2.376v-.54h-1.5118q-1.4523,0-1.4521.9121a.8113.8113,0,0,0,.36.7139,1.76,1.76,0,0,0,1.0024.2461,1.8184,1.8184,0,0,0,1.1216-.36A1.1528,1.1528,0,0,0,115.9849,321.665Z" transform="translate(-44.7845 -213.6309)" style="fill:#fff"/><path d="M120.7847,318.7368v3.24a1.0522,1.0522,0,0,0,.24.726.8525.8525,0,0,0,.6719.27,1.1452,1.1452,0,0,0,.8281-.42l.5518.9478a2.2907,2.2907,0,0,1-1.566.6362,2.0142,2.0142,0,0,1-1.4638-.5942,2.14,2.14,0,0,1-.606-1.6021v-3.2041h-.8042v-1.08h.8042v-2.0044h1.3438v2.0044h1.68v1.08Z" transform="translate(-44.7845 -213.6309)" style="fill:#fff"/><path d="M129.3169,324.041h-1.2241v-.852a2.6249,2.6249,0,0,1-2.124.9482,2.4365,2.4365,0,0,1-1.65-.564,1.8886,1.8886,0,0,1-.6538-1.5063,1.5848,1.5848,0,0,1,.6958-1.41,3.3323,3.3323,0,0,1,1.8838-.4682h1.74v-.24q0-1.2722-1.4161-1.272a3.3194,3.3194,0,0,0-1.8481.648l-.6-.84a4.1322,4.1322,0,0,1,2.64-.9239,2.8631,2.8631,0,0,1,1.8423.57,2.1593,2.1593,0,0,1,.7139,1.7939Zm-1.3442-2.376v-.54h-1.5118q-1.4523,0-1.4521.9121a.8113.8113,0,0,0,.36.7139,1.76,1.76,0,0,0,1.0024.2461,1.8184,1.8184,0,0,0,1.1216-.36A1.1528,1.1528,0,0,0,127.9727,321.665Z" transform="translate(-44.7845 -213.6309)" style="fill:#fff"/><rect x="140.1749" y="19.0788" width="102.4851" height="34.1363" rx="8.8506" style="fill:#2fa3de"/><path d="M203.2754,244.5859h1.416v8.3887h-1.416Z" transform="translate(-44.7845 -213.6309)" style="fill:#fff"/><path d="M208.1113,249.5186v3.456h-1.3437v-6.3838h1.3437v1.1631a2.4216,2.4216,0,0,1,2.1241-1.26,2.3743,2.3743,0,0,1,1.746.66,2.5711,2.5711,0,0,1,.6661,1.9082v3.9121h-1.3443v-3.5039q0-1.7652-1.4638-1.7646a1.76,1.76,0,0,0-1.212.4619A1.72,1.72,0,0,0,208.1113,249.5186Z" transform="translate(-44.7845 -213.6309)" style="fill:#fff"/><path d="M216.0913,247.67v3.24a1.0538,1.0538,0,0,0,.24.7265.8522.8522,0,0,0,.6719.27,1.1432,1.1432,0,0,0,.8281-.42l.5518.9483a2.2922,2.2922,0,0,1-1.5659.6357,2.0158,2.0158,0,0,1-1.4639-.5937,2.1419,2.1419,0,0,1-.6059-1.6026V247.67h-.8042v-1.0791h.8042v-2.0049h1.3437v2.0049h1.68V247.67Z" transform="translate(-44.7845 -213.6309)" style="fill:#fff"/><path d="M225.3916,250.37h-5.0039a1.4538,1.4538,0,0,0,.6357,1.1221,2.473,2.473,0,0,0,3.168-.33l.7681.84a3.5674,3.5674,0,0,1-2.688,1.0683,3.2,3.2,0,0,1-2.2861-.8935,3.1545,3.1545,0,0,1-.9419-2.4,3.1012,3.1012,0,0,1,.96-2.3936,3.22,3.22,0,0,1,2.2622-.8887,3.278,3.278,0,0,1,2.2139.7862,2.71,2.71,0,0,1,.9121,2.166Zm-5.0039-1.0556h3.66a1.54,1.54,0,0,0-.5039-1.2364,1.8415,1.8415,0,0,0-1.2422-.4316,2.1205,2.1205,0,0,0-1.3257.45A1.4523,1.4523,0,0,0,220.3877,249.3145Z" transform="translate(-44.7845 -213.6309)" style="fill:#fff"/><path d="M230.2153,247.8506a1.784,1.784,0,0,0-1.5.6474,2.764,2.764,0,0,0-.5039,1.74v2.7363h-1.3437v-6.3838h1.3437v1.2832a2.7871,2.7871,0,0,1,.8824-.9834,2.1238,2.1238,0,0,1,1.1816-.3965l.0122,1.3565Z" transform="translate(-44.7845 -213.6309)" style="fill:#fff"/><path d="M236.7437,252.9746H235.52v-.8525a2.6231,2.6231,0,0,1-2.124.9482,2.4358,2.4358,0,0,1-1.65-.5635A1.8889,1.8889,0,0,1,231.0918,251a1.5832,1.5832,0,0,1,.6958-1.4092,3.3283,3.3283,0,0,1,1.8838-.4687h1.74v-.2393q0-1.2729-1.416-1.2724a3.316,3.316,0,0,0-1.8481.6484l-.6-.8408a4.1347,4.1347,0,0,1,2.64-.9239,2.8635,2.8635,0,0,1,1.8423.57,2.158,2.158,0,0,1,.7139,1.7939Zm-1.3443-2.376v-.54h-1.5117q-1.4524,0-1.4522.9121a.8121.8121,0,0,0,.36.7139,1.76,1.76,0,0,0,1.0025.2461,1.816,1.816,0,0,0,1.1215-.36A1.1516,1.1516,0,0,0,235.3994,250.5986Z" transform="translate(-44.7845 -213.6309)" style="fill:#fff"/><path d="M241.4473,253.07a3.2207,3.2207,0,0,1-2.292-.9062,3.367,3.367,0,0,1,.042-4.752,3.4857,3.4857,0,0,1,2.4419-.918,3.3138,3.3138,0,0,1,2.436.9961l-.792.9717a2.5519,2.5519,0,0,0-1.668-.72,2.1037,2.1037,0,0,0-1.458.5586,1.85,1.85,0,0,0-.6181,1.4394,2.09,2.09,0,0,0,2.1181,2.1065,2.3415,2.3415,0,0,0,1.6861-.8164l.792.8642A3.6743,3.6743,0,0,1,241.4473,253.07Z" transform="translate(-44.7845 -213.6309)" style="fill:#fff"/><path d="M247.1831,247.67v3.24a1.0538,1.0538,0,0,0,.24.7265.8522.8522,0,0,0,.6719.27,1.1432,1.1432,0,0,0,.8281-.42l.5518.9483a2.2922,2.2922,0,0,1-1.5659.6357,2.0158,2.0158,0,0,1-1.4639-.5937,2.1419,2.1419,0,0,1-.6059-1.6026V247.67h-.8042v-1.0791h.8042v-2.0049h1.3437v2.0049h1.68V247.67Z" transform="translate(-44.7845 -213.6309)" style="fill:#fff"/><path d="M250.6274,245.3184a.84.84,0,1,1,.6.2519A.82.82,0,0,1,250.6274,245.3184Zm1.26,7.6562h-1.3437v-6.3838h1.3437Z" transform="translate(-44.7845 -213.6309)" style="fill:#fff"/><path d="M259.1709,252.1162a3.4953,3.4953,0,0,1-4.8,0,3.316,3.316,0,0,1,0-4.668,3.4953,3.4953,0,0,1,4.8,0,3.3173,3.3173,0,0,1,0,4.668Zm-3.8462-.8281a2.0874,2.0874,0,0,0,2.8921,0,2.2732,2.2732,0,0,0,0-3.0117,2.0872,2.0872,0,0,0-2.8921,0,2.2747,2.2747,0,0,0,0,3.0117Z" transform="translate(-44.7845 -213.6309)" style="fill:#fff"/><path d="M262.999,249.5186v3.456h-1.3437v-6.3838h1.3437v1.1631a2.4216,2.4216,0,0,1,2.124-1.26,2.3744,2.3744,0,0,1,1.7461.66,2.5711,2.5711,0,0,1,.6661,1.9082v3.9121h-1.3443v-3.5039q0-1.7652-1.4638-1.7646a1.76,1.76,0,0,0-1.212.4619A1.72,1.72,0,0,0,262.999,249.5186Z" transform="translate(-44.7845 -213.6309)" style="fill:#fff"/><line x1="191.4174" y1="57.258" x2="191.4174" y2="81.356" style="fill:none;stroke:#231815;stroke-miterlimit:10;stroke-width:4px"/><polygon points="184.636 73.389 191.417 80.174 198.199 73.389 198.199 79.147 191.417 85.928 184.636 79.147 184.636 73.389" style="fill:#231815"/><line x1="106.9951" y1="107.2848" x2="131.0931" y2="107.2848" style="fill:none;stroke:#231815;stroke-miterlimit:10;stroke-width:4px"/><polygon points="123.126 114.066 129.911 107.285 123.126 100.504 128.884 100.504 135.665 107.285 128.884 114.066 123.126 114.066" style="fill:#231815"/><line x1="106.9951" y1="143.6239" x2="131.0931" y2="143.6239" style="fill:none;stroke:#231815;stroke-miterlimit:10;stroke-width:4px"/><polygon points="123.126 150.405 129.911 143.624 123.126 136.843 128.884 136.843 135.665 143.624 128.884 150.405 123.126 150.405" style="fill:#231815"/><line x1="248.3251" y1="125.4543" x2="272.4231" y2="125.4543" style="fill:none;stroke:#231815;stroke-miterlimit:10;stroke-width:4px"/><polygon points="264.456 132.236 271.241 125.454 264.456 118.673 270.214 118.673 276.995 125.454 270.214 132.236 264.456 132.236" style="fill:#231815"/><path d="M366.7949,323.2959h2.8076v12.582h-2.8076Z" transform="translate(-44.7845 -213.6309)" style="fill:#595757"/><path d="M375.0391,330.478v5.4h-2.7v-9.6841h2.7v1.08a3.7778,3.7778,0,0,1,2.7539-1.2422,3.41,3.41,0,0,1,2.5644,1.08,3.9868,3.9868,0,0,1,1.0352,2.88v5.8862h-2.7v-5.4721q0-2.2317-1.6377-2.232a1.9661,1.9661,0,0,0-1.4131.585A2.2881,2.2881,0,0,0,375.0391,330.478Z" transform="translate(-44.7845 -213.6309)" style="fill:#595757"/><path d="M386.9189,328.1377v4.3384a1.2437,1.2437,0,0,0,.2881.873.8958.8958,0,0,0,.6836.315,1.5611,1.5611,0,0,0,1.2783-.6841l1.0079,1.89a3.8988,3.8988,0,0,1-2.6553,1.1519,3.2236,3.2236,0,0,1-3.32-3.42v-4.4644h-1.1348v-1.9439h1.1348v-2.8979h2.7177v2.8979h2.34v1.9439Z" transform="translate(-44.7845 -213.6309)" style="fill:#595757"/><path d="M400.0049,334.4741a5.4149,5.4149,0,0,1-3.8428,1.5479,5.0986,5.0986,0,0,1-3.6455-1.3589,4.775,4.775,0,0,1-1.44-3.645,4.7,4.7,0,0,1,1.4677-3.6363,4.9473,4.9473,0,0,1,3.4649-1.35,5.0094,5.0094,0,0,1,3.3926,1.2061,4.15,4.15,0,0,1,1.3955,3.312v1.44H393.74a1.9264,1.9264,0,0,0,.8282,1.2964,2.6514,2.6514,0,0,0,1.5839.5039,3.104,3.104,0,0,0,2.34-.9541Zm-2.5918-5.7422a2.0448,2.0448,0,0,0-1.3594-.4677,2.4293,2.4293,0,0,0-1.4668.4858,1.8591,1.8591,0,0,0-.7744,1.314h4.248A1.9214,1.9214,0,0,0,397.4131,328.7319Z" transform="translate(-44.7845 -213.6309)" style="fill:#595757"/><path d="M407.835,328.57a2.046,2.046,0,0,0-1.8008.855,3.8906,3.8906,0,0,0-.5938,2.2593v4.1938h-2.7v-9.6841h2.7v1.2784a4.5343,4.5343,0,0,1,1.3057-1.0083,3.5474,3.5474,0,0,1,1.5928-.4322l.0175,2.5381Z" transform="translate(-44.7845 -213.6309)" style="fill:#595757"/><path d="M418.2744,335.8779h-2.5381v-1.17a3.18,3.18,0,0,1-2.583,1.314,3.8416,3.8416,0,0,1-2.583-.8911,2.9681,2.9681,0,0,1-1.0439-2.376,2.5135,2.5135,0,0,1,1.08-2.2232,5.17,5.17,0,0,1,2.9522-.7378h2.0166V329.74q0-1.5476-1.6387-1.5478a4.4353,4.4353,0,0,0-1.4844.2788,4.82,4.82,0,0,0-1.3232.6934l-1.206-1.7461a7.2212,7.2212,0,0,1,4.3554-1.3863,4.5073,4.5073,0,0,1,2.8809.8824,3.3421,3.3421,0,0,1,1.1152,2.79Zm-2.7178-3.69V331.72h-1.6914q-1.62,0-1.62,1.0083a.9264.9264,0,0,0,.3867.8008,1.8689,1.8689,0,0,0,1.1065.2793,1.967,1.967,0,0,0,1.2695-.4414A1.4328,1.4328,0,0,0,415.5566,332.188Z" transform="translate(-44.7845 -213.6309)" style="fill:#595757"/><path d="M425.3848,333.6279a3.096,3.096,0,0,0,2.43-1.35l1.6025,1.8a5.5712,5.5712,0,0,1-4.0508,1.9439,5.25,5.25,0,0,1-3.6807-1.377,5.063,5.063,0,0,1,.0186-7.2182,5.16,5.16,0,0,1,3.6084-1.3951,5.6218,5.6218,0,0,1,2.1152.4322,5.3555,5.3555,0,0,1,1.8809,1.2778l-1.4043,1.8364a3.185,3.185,0,0,0-1.1426-.8642,3.2353,3.2353,0,0,0-1.3408-.3062,2.6289,2.6289,0,0,0-1.8271.6934,2.4635,2.4635,0,0,0-.7647,1.9258,2.435,2.435,0,0,0,.7647,1.9169A2.6,2.6,0,0,0,425.3848,333.6279Z" transform="translate(-44.7845 -213.6309)" style="fill:#595757"/><path d="M434.4385,328.1377v4.3384a1.2437,1.2437,0,0,0,.2881.873.8956.8956,0,0,0,.6836.315,1.5612,1.5612,0,0,0,1.2783-.6841l1.0078,1.89a3.8988,3.8988,0,0,1-2.6553,1.1519,3.2236,3.2236,0,0,1-3.32-3.42v-4.4644h-1.1348v-1.9439h1.1348v-2.8979h2.7178v2.8979h2.34v1.9439Z" transform="translate(-44.7845 -213.6309)" style="fill:#595757"/><path d="M439.3613,324.9609a1.6082,1.6082,0,1,1,1.125.459A1.5278,1.5278,0,0,1,439.3613,324.9609Zm2.4746,10.917h-2.7v-9.6841h2.7Z" transform="translate(-44.7845 -213.6309)" style="fill:#595757"/><path d="M447.002,335.8779l-3.834-9.7021h2.8076l2.4121,6.102,2.4121-6.102h2.8086l-3.834,9.7021Z" transform="translate(-44.7845 -213.6309)" style="fill:#595757"/><path d="M463.3281,334.4741a5.4145,5.4145,0,0,1-3.8427,1.5479,5.0987,5.0987,0,0,1-3.6456-1.3589,4.7753,4.7753,0,0,1-1.44-3.645,4.7,4.7,0,0,1,1.4678-3.6363,4.9469,4.9469,0,0,1,3.4648-1.35,5.0093,5.0093,0,0,1,3.3926,1.2061,4.15,4.15,0,0,1,1.3955,3.312v1.44h-7.0566a1.9263,1.9263,0,0,0,.8281,1.2964,2.6517,2.6517,0,0,0,1.584.5039,3.1039,3.1039,0,0,0,2.34-.9541Zm-2.5918-5.7422a2.0445,2.0445,0,0,0-1.3593-.4677,2.4291,2.4291,0,0,0-1.4668.4858,1.8589,1.8589,0,0,0-.7745,1.314h4.2481A1.9219,1.9219,0,0,0,460.7363,328.7319Z" transform="translate(-44.7845 -213.6309)" style="fill:#595757"/><path d="M390.5732,346.543a5.9,5.9,0,0,1,1.8,4.581,6.1855,6.1855,0,0,1-1.7548,4.6441q-1.755,1.71-5.3555,1.71h-4.3018V344.896h4.4463A7.3892,7.3892,0,0,1,390.5732,346.543Zm-2.0615,7.479a3.69,3.69,0,0,0,1.0352-2.8262,3.7792,3.7792,0,0,0-1.0352-2.8525,4.4244,4.4244,0,0,0-3.1767-.9991h-1.5664v7.65h1.7822A4.1643,4.1643,0,0,0,388.5117,354.022Z" transform="translate(-44.7845 -213.6309)" style="fill:#595757"/><path d="M402.6328,357.478h-2.5381v-1.17a3.18,3.18,0,0,1-2.583,1.314,3.8416,3.8416,0,0,1-2.583-.8911,2.9681,2.9681,0,0,1-1.0439-2.376,2.5135,2.5135,0,0,1,1.08-2.2232,5.17,5.17,0,0,1,2.9522-.7378h2.0166V351.34q0-1.5476-1.6387-1.5478a4.4348,4.4348,0,0,0-1.4844.2788,4.82,4.82,0,0,0-1.3232.6934l-1.2061-1.7461a7.2217,7.2217,0,0,1,4.3555-1.3863,4.5073,4.5073,0,0,1,2.8809.8824,3.3421,3.3421,0,0,1,1.1152,2.79Zm-2.7178-3.69V353.32h-1.6914q-1.62,0-1.62,1.0083a.9264.9264,0,0,0,.3867.8008,1.8689,1.8689,0,0,0,1.1065.2793,1.9672,1.9672,0,0,0,1.2695-.4414A1.4328,1.4328,0,0,0,399.915,353.7881Z" transform="translate(-44.7845 -213.6309)" style="fill:#595757"/><path d="M408.2129,349.7378v4.3384a1.2437,1.2437,0,0,0,.2881.873.8976.8976,0,0,0,.6845.315,1.5582,1.5582,0,0,0,1.2774-.6841l1.0078,1.89a3.8963,3.8963,0,0,1-2.6543,1.1519,3.2237,3.2237,0,0,1-3.3213-3.42v-4.4643h-1.1338v-1.9439h1.1338V344.896h2.7178v2.8979h2.34v1.9439Z" transform="translate(-44.7845 -213.6309)" style="fill:#595757"/><path d="M421.1367,357.478h-2.5381v-1.17a3.1813,3.1813,0,0,1-2.583,1.314,3.8381,3.8381,0,0,1-2.583-.8911,2.9651,2.9651,0,0,1-1.0439-2.376,2.5134,2.5134,0,0,1,1.08-2.2232,5.1681,5.1681,0,0,1,2.9521-.7378h2.0156V351.34q0-1.5476-1.6377-1.5478a4.4443,4.4443,0,0,0-1.4853.2788,4.8488,4.8488,0,0,0-1.3233.6934l-1.206-1.7461a7.2263,7.2263,0,0,1,4.3564-1.3863,4.5062,4.5062,0,0,1,2.88.8824,3.34,3.34,0,0,1,1.1162,2.79Zm-2.7178-3.69V353.32h-1.6923q-1.62,0-1.62,1.0083a.9265.9265,0,0,0,.3868.8008,1.872,1.872,0,0,0,1.1074.2793,1.9663,1.9663,0,0,0,1.2685-.4414A1.4333,1.4333,0,0,0,418.4189,353.7881Z" transform="translate(-44.7845 -213.6309)" style="fill:#595757"/><path d="M430.8926,354.4629a2.8211,2.8211,0,0,1-1.0528,2.2949,4.0766,4.0766,0,0,1-2.6738.8643,7.15,7.15,0,0,1-2.25-.3872,6.6343,6.6343,0,0,1-2.1055-1.1431L423.998,354.4a5.1747,5.1747,0,0,0,3.2227,1.17,1.4577,1.4577,0,0,0,.8281-.207.6352.6352,0,0,0,.3057-.5488.794.794,0,0,0-.4229-.63,4.7825,4.7825,0,0,0-1.2246-.54q-.8-.2519-1.2236-.4321a6.845,6.845,0,0,1-.9629-.522,2.2335,2.2335,0,0,1-1.0976-2.0249,2.6514,2.6514,0,0,1,1.08-2.187,4.39,4.39,0,0,1,2.7891-.8462,6.0888,6.0888,0,0,1,3.4209,1.1524l-1.0088,1.8a4.4177,4.4177,0,0,0-2.5107-.8638q-1.251,0-1.251.6836a.6575.6575,0,0,0,.3965.5942,7.9571,7.9571,0,0,0,1.3134.504q.9184.2884,1.3047.4409a6.5668,6.5668,0,0,1,.9278.477A2.2008,2.2008,0,0,1,430.8926,354.4629Z" transform="translate(-44.7845 -213.6309)" style="fill:#595757"/><path d="M441.3506,356.0742a5.4149,5.4149,0,0,1-3.8428,1.5479,5.0986,5.0986,0,0,1-3.6455-1.3589,4.775,4.775,0,0,1-1.44-3.645,4.7,4.7,0,0,1,1.4677-3.6363,4.9473,4.9473,0,0,1,3.4649-1.35,5.0094,5.0094,0,0,1,3.3926,1.2061,4.15,4.15,0,0,1,1.3955,3.312v1.44h-7.0567a1.9264,1.9264,0,0,0,.8282,1.2964,2.6514,2.6514,0,0,0,1.5839.5039,3.104,3.104,0,0,0,2.34-.9541Zm-2.5918-5.7422a2.0448,2.0448,0,0,0-1.3594-.4677,2.4293,2.4293,0,0,0-1.4668.4858,1.8591,1.8591,0,0,0-.7744,1.314h4.248A1.9214,1.9214,0,0,0,438.7588,350.332Z" transform="translate(-44.7845 -213.6309)" style="fill:#595757"/><path d="M447.2,349.7378v4.3384a1.2437,1.2437,0,0,0,.2881.873.8976.8976,0,0,0,.6846.315,1.5582,1.5582,0,0,0,1.2773-.6841l1.0078,1.89a3.8963,3.8963,0,0,1-2.6543,1.1519,3.2237,3.2237,0,0,1-3.3213-3.42v-4.4643h-1.1338v-1.9439h1.1338V344.896H447.2v2.8979h2.34v1.9439Z" transform="translate(-44.7845 -213.6309)" style="fill:#595757"/><line x1="331.5858" y1="84.3629" x2="341.808" y2="98.1407" style="fill:#f0c02d;stroke:#f0c02d;stroke-miterlimit:10;stroke-width:3px"/><line x1="297.3635" y1="108.6213" x2="312.4746" y2="111.723" style="fill:#f0c02d;stroke:#f0c02d;stroke-miterlimit:10;stroke-width:3px"/><line x1="409.596" y1="168.7485" x2="399.3738" y2="154.9707" style="fill:#f0c02d;stroke:#f0c02d;stroke-miterlimit:10;stroke-width:3px"/><line x1="443.8183" y1="144.4902" x2="428.7072" y2="141.3884" style="fill:#f0c02d;stroke:#f0c02d;stroke-miterlimit:10;stroke-width:3px"/><line x1="409.1541" y1="84.3629" x2="398.9319" y2="98.1407" style="fill:#f0c02d;stroke:#f0c02d;stroke-miterlimit:10;stroke-width:3px"/><line x1="443.3763" y1="108.6213" x2="428.2652" y2="111.723" style="fill:#f0c02d;stroke:#f0c02d;stroke-miterlimit:10;stroke-width:3px"/><line x1="332.0422" y1="167.1976" x2="342.2645" y2="153.4198" style="fill:#f0c02d;stroke:#f0c02d;stroke-miterlimit:10;stroke-width:3px"/><line x1="297.82" y1="142.9393" x2="312.9311" y2="139.8375" style="fill:#f0c02d;stroke:#f0c02d;stroke-miterlimit:10;stroke-width:3px"/></svg>