<svg xmlns="http://www.w3.org/2000/svg" viewBox="0 0 444.12 170.932"><defs><style>.cls-1{fill:#4cbaa3;}.cls-2{fill:#2fa3de;}.cls-3{font-size:21px;}.cls-11,.cls-3{fill:#fff;}.cls-18,.cls-3,.cls-5{font-family:Montserrat-Bold, Montserrat;font-weight:700;}.cls-4{letter-spacing:-0.009em;}.cls-11,.cls-5{font-size:12px;}.cls-18,.cls-5{fill:#595757;}.cls-6{letter-spacing:-0.007em;}.cls-7{letter-spacing:0em;}.cls-8{letter-spacing:-0.012em;}.cls-9{letter-spacing:-0.006em;}.cls-10{letter-spacing:-0.006em;}.cls-11{font-family:Montserrat-Regular, Montserrat;}.cls-12{letter-spacing:-0.009em;}.cls-13{letter-spacing:0em;}.cls-14{letter-spacing:-0.005em;}.cls-15{letter-spacing:-0.005em;}.cls-16{fill:none;stroke:#231815;stroke-width:4px;}.cls-16,.cls-24{stroke-miterlimit:10;}.cls-17{fill:#231815;}.cls-18{font-size:18px;}.cls-19{letter-spacing:-0.005em;}.cls-20{letter-spacing:-0.008em;}.cls-21{letter-spacing:-0.007em;}.cls-22{letter-spacing:-0.006em;}.cls-23{letter-spacing:0em;}.cls-24{fill:#f0c02d;stroke:#f0c02d;stroke-width:3px;}</style></defs><g id="图层_2" data-name="图层 2"><g id="图层_1-2" data-name="图层 1"><rect class="cls-1" x="140.175" y="91.507" width="102.485" height="70.475" rx="8.851"/><rect class="cls-2" y="127.846" width="102.485" height="34.136" rx="8.851"/><text class="cls-3" transform="translate(159.286 132.616)">Scri<tspan class="cls-4" x="40.382" y="0">p</tspan><tspan x="54.179" y="0">t</tspan></text><text class="cls-5" transform="translate(0 80.762)"><tspan class="cls-6">P</tspan><tspan class="cls-7" x="8.04" y="0">oly</tspan><tspan class="cls-8" x="26.412" y="0">v</tspan><tspan class="cls-7" x="33.3" y="0">ore </tspan><tspan class="cls-6" x="56.604" y="0">D</tspan><tspan class="cls-9" x="65.748" y="0">a</tspan><tspan x="72.804" y="0">tas</tspan><tspan class="cls-10" x="91.451" y="0">e</tspan><tspan x="98.795" y="0">t</tspan></text><text class="cls-11" transform="translate(13.182 149.233)">Outfits D<tspan class="cls-10" x="54.527" y="0">a</tspan><tspan x="61.499" y="0">ta</tspan></text><text class="cls-5" transform="translate(167.448 10.194)">Re<tspan class="cls-12" x="16.14" y="0">c</tspan><tspan class="cls-13" x="23.016" y="0">o</tspan><tspan class="cls-6" x="30.804" y="0">r</tspan><tspan x="35.652" y="0">d</tspan></text><rect class="cls-2" y="91.507" width="102.485" height="34.136" rx="8.851"/><text class="cls-11" transform="translate(15.509 111.7)">Image D<tspan class="cls-10" x="50.892" y="0">a</tspan><tspan x="57.863" y="0">ta</tspan></text><rect class="cls-2" x="140.175" y="20.369" width="102.485" height="34.136" rx="8.851"/><text class="cls-11" transform="translate(157.327 40.634)"><tspan class="cls-14">I</tspan><tspan class="cls-6" x="3.684" y="0">n</tspan><tspan x="11.352" y="0">te</tspan><tspan class="cls-15" x="23.784" y="0">r</tspan><tspan class="cls-7" x="28.488" y="0">action</tspan></text><text/><line class="cls-16" x1="191.418" y1="58.548" x2="191.418" y2="82.646"/><polygon class="cls-17" points="184.636 74.679 191.418 81.464 198.199 74.679 198.199 80.437 191.418 87.218 184.636 80.437 184.636 74.679"/><line class="cls-16" x1="106.995" y1="108.575" x2="131.093" y2="108.575"/><polygon class="cls-17" points="123.126 115.356 129.911 108.575 123.126 101.794 128.884 101.794 135.665 108.575 128.884 115.356 123.126 115.356"/><line class="cls-16" x1="106.995" y1="144.914" x2="131.093" y2="144.914"/><polygon class="cls-17" points="123.126 151.695 129.911 144.914 123.126 138.133 128.884 138.133 135.665 144.914 128.884 151.695 123.126 151.695"/><line class="cls-16" x1="248.325" y1="126.744" x2="272.423" y2="126.744"/><polygon class="cls-17" points="264.456 133.526 271.241 126.744 264.456 119.963 270.214 119.963 276.995 126.744 270.214 133.526 264.456 133.526"/><text class="cls-18" transform="translate(320.463 123.537)"><tspan class="cls-19">I</tspan><tspan class="cls-20" x="5.814" y="0">n</tspan><tspan x="17.172" y="0">te</tspan><tspan class="cls-19" x="36.216" y="0">r</tspan><tspan x="43.524" y="0">active</tspan><tspan class="cls-21" x="14.166" y="21.6">D</tspan><tspan class="cls-22" x="27.882" y="21.6">a</tspan><tspan class="cls-23" x="38.466" y="21.6">tas</tspan><tspan class="cls-22" x="66.438" y="21.6">e</tspan><tspan x="77.454" y="21.6">t</tspan></text><line class="cls-24" x1="331.586" y1="85.653" x2="341.808" y2="99.431"/><line class="cls-24" x1="297.364" y1="109.911" x2="312.475" y2="113.013"/><line class="cls-24" x1="409.596" y1="170.039" x2="399.374" y2="156.261"/><line class="cls-24" x1="443.819" y1="145.78" x2="428.707" y2="142.678"/><line class="cls-24" x1="409.154" y1="85.653" x2="398.932" y2="99.431"/><line class="cls-24" x1="443.377" y1="109.911" x2="428.266" y2="113.013"/><line class="cls-24" x1="332.043" y1="168.488" x2="342.265" y2="154.71"/><line class="cls-24" x1="297.82" y1="144.229" x2="312.931" y2="141.128"/></g></g></svg>